<svg xmlns="http://www.w3.org/2000/svg" xmlns:xlink="http://www.w3.org/1999/xlink" version="1.1"
    x="0px" y="0px" viewBox="0 0 100 100" enable-background="new 0 0 100 100" xml:space="preserve"
    style="max-width:100%" height="100%"><g style="" color="#EB5112" fill="currentColor"><g style="" fill="currentColor"><path d="M59.027,8.679c-0.832-0.412-1.824-0.311-2.558,0.253L25.464,32.771H7.466c-1.343,0-2.433,1.089-2.433,2.433v29.594    c0,1.344,1.089,2.433,2.433,2.433h17.998l31.008,23.839c0.433,0.333,0.955,0.504,1.482,0.504c0.366,0,0.734-0.082,1.074-0.251    c0.831-0.41,1.358-1.256,1.358-2.182l-0.002-78.28C60.385,9.935,59.858,9.087,59.027,8.679z M27.773,62.868    c-0.424-0.326-0.946-0.503-1.483-0.503H9.899V37.636h16.392c0.537,0,1.059-0.177,1.484-0.503L55.52,15.8l0.002,68.401    L27.773,62.868z" style="" fill="currentColor"></path><path d="M80.71,15.525c-0.95-0.951-2.491-0.951-3.44,0c-0.95,0.95-0.95,2.49,0,3.44c17.113,17.113,17.113,44.959,0,62.072    c-0.95,0.951-0.95,2.49,0,3.44c0.476,0.476,1.098,0.713,1.72,0.713c0.623,0,1.245-0.237,1.721-0.713    C99.719,65.467,99.719,34.535,80.71,15.525z" style="" fill="currentColor"></path><path d="M70.884,25.352c-0.951-0.95-2.491-0.95-3.441,0c-0.949,0.951-0.949,2.491,0.001,3.44    c5.664,5.665,8.784,13.196,8.784,21.208c0,8.012-3.12,15.544-8.784,21.209c-0.95,0.95-0.95,2.49,0,3.44    c0.475,0.475,1.098,0.713,1.72,0.713c0.623,0,1.245-0.238,1.721-0.713c6.583-6.584,10.21-15.339,10.21-24.649    C81.094,40.689,77.467,31.936,70.884,25.352z" style="" fill="currentColor"></path></g></g></svg>