<svg width="866" height="489" viewBox="0 0 866 489" fill="none" xmlns="http://www.w3.org/2000/svg">
<path d="M141.2 336.6L123.8 354H89.2V336.8L69.4 356.4V214.4L89.2 193.6V262.6L101.6 250.2H123.8L141.2 267.6V336.6ZM121.4 336.6V267.6H89.2V336.6H121.4ZM263.469 354H243.669V339.2L228.869 354H209.069L191.869 336.6V302.2L209.069 284.8H241.669L225.269 302H211.469V336.6H243.669V267.6H189.269L204.069 250.2H246.269L263.469 267.6V354ZM378.469 267.6H329.069V284.8H356.269L373.669 302.2V336.6L356.269 354H309.269V336.6H353.869V302.2H326.669L309.269 284.8V267.6L326.669 250.2H360.869L378.469 267.6ZM479.789 267.6H430.389V284.8H457.589L474.989 302.2V336.6L457.589 354H410.589V336.6H455.189V302.2H427.989L410.589 284.8V267.6L427.989 250.2H462.189L479.789 267.6ZM542.309 233.2H522.509V213.4H542.309V233.2ZM542.309 354H522.509V265.4L542.309 245.4V354ZM669.206 354H649.606V339.2L635.206 354H615.006L597.806 336.6V267.6L615.006 250.2H649.606V215.6L669.206 196V354ZM649.606 336.6V252.6L634.406 267.6H617.606V336.6H649.606ZM796.503 354H742.303L725.103 336.6V267.6L742.303 250.2H779.303L796.503 267.6V302.2L779.303 319.4H747.303L764.903 302.2H776.903V267.6H744.903V336.6H796.503V354Z" fill="white"/>
<path d="M29.85 474V452.625C29.85 450.675 29.725 448.975 29.475 447.525C29.275 446.025 28.875 444.8 28.275 443.85C27.675 442.85 26.85 442.1 25.8 441.6C24.8 441.1 23.475 440.85 21.825 440.85C19.475 440.85 17.35 441.625 15.45 443.175C13.55 444.675 12.325 446.625 11.775 449.025V474H5.775V421.5H11.775V440.7H12.075C13.375 439.15 14.925 437.925 16.725 437.025C18.575 436.075 20.85 435.6 23.55 435.6C25.65 435.6 27.475 435.85 29.025 436.35C30.575 436.8 31.85 437.625 32.85 438.825C33.9 440.025 34.65 441.65 35.1 443.7C35.6 445.7 35.85 448.25 35.85 451.35V474H29.85ZM79.0406 471C77.5406 472.2 75.6406 473.15 73.3406 473.85C71.0906 474.55 68.6906 474.9 66.1406 474.9C63.2906 474.9 60.8156 474.45 58.7156 473.55C56.6156 472.6 54.8906 471.275 53.5406 469.575C52.1906 467.825 51.1906 465.75 50.5406 463.35C49.8906 460.95 49.5656 458.25 49.5656 455.25C49.5656 448.85 50.9906 443.975 53.8406 440.625C56.6906 437.275 60.7656 435.6 66.0656 435.6C67.7656 435.6 69.4656 435.8 71.1656 436.2C72.8656 436.55 74.3906 437.25 75.7406 438.3C77.0906 439.35 78.1906 440.85 79.0406 442.8C79.8906 444.7 80.3156 447.225 80.3156 450.375C80.3156 452.025 80.1656 453.85 79.8656 455.85H55.7906C55.7906 458.05 56.0156 460 56.4656 461.7C56.9156 463.4 57.6156 464.85 58.5656 466.05C59.5156 467.2 60.7406 468.1 62.2406 468.75C63.7906 469.35 65.6656 469.65 67.8656 469.65C69.5656 469.65 71.2656 469.35 72.9656 468.75C74.6656 468.15 75.9406 467.45 76.7906 466.65L79.0406 471ZM66.1406 440.85C63.1906 440.85 60.8156 441.625 59.0156 443.175C57.2656 444.725 56.2156 447.375 55.8656 451.125H74.4656C74.4656 447.325 73.7406 444.675 72.2906 443.175C70.8406 441.625 68.7906 440.85 66.1406 440.85ZM94.0266 439.275C95.9266 438.125 98.1266 437.275 100.627 436.725C103.177 436.175 105.827 435.9 108.577 435.9C111.177 435.9 113.252 436.25 114.802 436.95C116.402 437.65 117.602 438.575 118.402 439.725C119.252 440.825 119.802 442.05 120.052 443.4C120.352 444.75 120.502 446.1 120.502 447.45C120.502 450.45 120.427 453.375 120.277 456.225C120.127 459.075 120.052 461.775 120.052 464.325C120.052 466.175 120.127 467.925 120.277 469.575C120.427 471.225 120.702 472.75 121.102 474.15H116.677L115.102 468.9H114.727C114.277 469.6 113.702 470.3 113.002 471C112.352 471.65 111.552 472.25 110.602 472.8C109.652 473.3 108.552 473.725 107.302 474.075C106.052 474.425 104.627 474.6 103.027 474.6C101.427 474.6 99.9266 474.35 98.5266 473.85C97.1766 473.35 96.0016 472.65 95.0016 471.75C94.0016 470.8 93.2016 469.675 92.6016 468.375C92.0516 467.075 91.7766 465.6 91.7766 463.95C91.7766 461.75 92.2266 459.925 93.1266 458.475C94.0266 456.975 95.2766 455.8 96.8766 454.95C98.5266 454.05 100.477 453.425 102.727 453.075C105.027 452.675 107.552 452.475 110.302 452.475C111.002 452.475 111.677 452.475 112.327 452.475C113.027 452.475 113.727 452.525 114.427 452.625C114.577 451.125 114.652 449.775 114.652 448.575C114.652 445.825 114.102 443.9 113.002 442.8C111.902 441.7 109.902 441.15 107.002 441.15C106.152 441.15 105.227 441.225 104.227 441.375C103.277 441.475 102.277 441.65 101.227 441.9C100.227 442.1 99.2516 442.375 98.3016 442.725C97.4016 443.025 96.6016 443.375 95.9016 443.775L94.0266 439.275ZM104.677 469.35C106.077 469.35 107.327 469.175 108.427 468.825C109.527 468.425 110.477 467.95 111.277 467.4C112.077 466.8 112.727 466.15 113.227 465.45C113.777 464.75 114.177 464.075 114.427 463.425V457.2C113.727 457.15 113.002 457.125 112.252 457.125C111.552 457.075 110.852 457.05 110.152 457.05C108.602 457.05 107.077 457.15 105.577 457.35C104.127 457.5 102.827 457.825 101.677 458.325C100.577 458.775 99.6766 459.425 98.9766 460.275C98.3266 461.075 98.0016 462.1 98.0016 463.35C98.0016 465.1 98.6266 466.55 99.8766 467.7C101.127 468.8 102.727 469.35 104.677 469.35ZM165.509 461.1C165.509 463.65 165.534 465.975 165.584 468.075C165.634 470.125 165.859 472.15 166.259 474.15H162.209L160.709 468.825H160.409C159.409 470.575 157.959 472.025 156.059 473.175C154.159 474.325 151.934 474.9 149.384 474.9C144.384 474.9 140.659 473.325 138.209 470.175C135.809 467.025 134.609 462.1 134.609 455.4C134.609 449 136.109 444.15 139.109 440.85C142.159 437.5 146.334 435.825 151.634 435.825C153.484 435.825 154.934 435.925 155.984 436.125C157.084 436.325 158.259 436.65 159.509 437.1V421.5H165.509V461.1ZM150.359 469.65C152.909 469.65 154.934 469 156.434 467.7C157.934 466.35 158.959 464.325 159.509 461.625V443.025C158.609 442.325 157.584 441.825 156.434 441.525C155.284 441.225 153.759 441.075 151.859 441.075C148.409 441.075 145.709 442.225 143.759 444.525C141.809 446.775 140.834 450.4 140.834 455.4C140.834 457.45 140.984 459.35 141.284 461.1C141.634 462.85 142.184 464.35 142.934 465.6C143.684 466.85 144.659 467.85 145.859 468.6C147.109 469.3 148.609 469.65 150.359 469.65ZM181.94 436.5H186.065L187.19 441H187.49C188.64 439.25 190.115 437.925 191.915 437.025C193.765 436.075 195.865 435.6 198.215 435.6C203.215 435.6 206.94 437.075 209.39 440.025C211.84 442.975 213.065 447.8 213.065 454.5C213.065 457.65 212.64 460.5 211.79 463.05C210.99 465.55 209.84 467.675 208.34 469.425C206.84 471.175 205.015 472.525 202.865 473.475C200.765 474.425 198.415 474.9 195.815 474.9C193.965 474.9 192.49 474.775 191.39 474.525C190.34 474.325 189.19 473.95 187.94 473.4V489H181.94V436.5ZM197.09 440.85C194.54 440.85 192.515 441.525 191.015 442.875C189.565 444.175 188.54 446.175 187.94 448.875V467.475C188.84 468.175 189.865 468.725 191.015 469.125C192.165 469.475 193.69 469.65 195.59 469.65C199.04 469.65 201.765 468.375 203.765 465.825C205.815 463.225 206.84 459.425 206.84 454.425C206.84 452.375 206.665 450.525 206.315 448.875C205.965 447.175 205.39 445.75 204.59 444.6C203.84 443.4 202.84 442.475 201.59 441.825C200.39 441.175 198.89 440.85 197.09 440.85ZM251.466 474V452.625C251.466 450.675 251.341 448.975 251.091 447.525C250.891 446.025 250.491 444.8 249.891 443.85C249.291 442.85 248.466 442.1 247.416 441.6C246.416 441.1 245.091 440.85 243.441 440.85C241.091 440.85 238.966 441.625 237.066 443.175C235.166 444.675 233.941 446.625 233.391 449.025V474H227.391V421.5H233.391V440.7H233.691C234.991 439.15 236.541 437.925 238.341 437.025C240.191 436.075 242.466 435.6 245.166 435.6C247.266 435.6 249.091 435.85 250.641 436.35C252.191 436.8 253.466 437.625 254.466 438.825C255.516 440.025 256.266 441.65 256.716 443.7C257.216 445.7 257.466 448.25 257.466 451.35V474H251.466ZM271.182 455.25C271.182 448.9 272.582 444.05 275.382 440.7C278.232 437.3 282.307 435.6 287.607 435.6C290.407 435.6 292.832 436.075 294.882 437.025C296.982 437.925 298.707 439.25 300.057 441C301.407 442.7 302.407 444.775 303.057 447.225C303.707 449.625 304.032 452.3 304.032 455.25C304.032 461.6 302.607 466.475 299.757 469.875C296.957 473.225 292.907 474.9 287.607 474.9C284.807 474.9 282.357 474.45 280.257 473.55C278.207 472.6 276.507 471.275 275.157 469.575C273.807 467.825 272.807 465.75 272.157 463.35C271.507 460.9 271.182 458.2 271.182 455.25ZM277.407 455.25C277.407 457.15 277.582 458.975 277.932 460.725C278.332 462.475 278.932 464 279.732 465.3C280.532 466.6 281.582 467.65 282.882 468.45C284.182 469.25 285.757 469.65 287.607 469.65C294.407 469.7 297.807 464.9 297.807 455.25C297.807 453.3 297.607 451.45 297.207 449.7C296.857 447.95 296.282 446.425 295.482 445.125C294.682 443.825 293.632 442.8 292.332 442.05C291.032 441.25 289.457 440.85 287.607 440.85C280.807 440.8 277.407 445.6 277.407 455.25ZM342.442 474V452.625C342.442 448.725 341.867 445.8 340.717 443.85C339.617 441.85 337.567 440.85 334.567 440.85C331.917 440.85 329.717 441.575 327.967 443.025C326.267 444.425 325.067 446.2 324.367 448.35V474H318.367V436.5H322.567L323.692 441.075H323.992C325.192 439.475 326.792 438.175 328.792 437.175C330.842 436.125 333.267 435.6 336.067 435.6C338.117 435.6 339.917 435.85 341.467 436.35C343.017 436.8 344.292 437.625 345.292 438.825C346.342 440.025 347.117 441.65 347.617 443.7C348.167 445.7 348.442 448.25 348.442 451.35V474H342.442ZM391.632 471C390.132 472.2 388.232 473.15 385.932 473.85C383.682 474.55 381.282 474.9 378.732 474.9C375.882 474.9 373.407 474.45 371.307 473.55C369.207 472.6 367.482 471.275 366.132 469.575C364.782 467.825 363.782 465.75 363.132 463.35C362.482 460.95 362.157 458.25 362.157 455.25C362.157 448.85 363.582 443.975 366.432 440.625C369.282 437.275 373.357 435.6 378.657 435.6C380.357 435.6 382.057 435.8 383.757 436.2C385.457 436.55 386.982 437.25 388.332 438.3C389.682 439.35 390.782 440.85 391.632 442.8C392.482 444.7 392.907 447.225 392.907 450.375C392.907 452.025 392.757 453.85 392.457 455.85H368.382C368.382 458.05 368.607 460 369.057 461.7C369.507 463.4 370.207 464.85 371.157 466.05C372.107 467.2 373.332 468.1 374.832 468.75C376.382 469.35 378.257 469.65 380.457 469.65C382.157 469.65 383.857 469.35 385.557 468.75C387.257 468.15 388.532 467.45 389.382 466.65L391.632 471ZM378.732 440.85C375.782 440.85 373.407 441.625 371.607 443.175C369.857 444.725 368.807 447.375 368.457 451.125H387.057C387.057 447.325 386.332 444.675 384.882 443.175C383.432 441.625 381.382 440.85 378.732 440.85ZM423.718 463.8C423.718 462.3 423.268 461.125 422.368 460.275C421.468 459.425 420.343 458.725 418.993 458.175C417.693 457.575 416.243 457.025 414.643 456.525C413.093 455.975 411.643 455.3 410.293 454.5C408.993 453.65 407.893 452.575 406.993 451.275C406.093 449.975 405.643 448.225 405.643 446.025C405.643 442.425 406.668 439.8 408.718 438.15C410.768 436.45 413.618 435.6 417.268 435.6C419.968 435.6 422.218 435.85 424.018 436.35C425.868 436.8 427.468 437.35 428.818 438L427.393 442.95C426.243 442.4 424.843 441.925 423.193 441.525C421.593 441.075 419.868 440.85 418.018 440.85C415.818 440.85 414.193 441.225 413.143 441.975C412.143 442.725 411.643 444.025 411.643 445.875C411.643 447.175 412.093 448.2 412.993 448.95C413.893 449.65 414.993 450.3 416.293 450.9C417.643 451.45 419.093 452 420.643 452.55C422.243 453.1 423.693 453.825 424.993 454.725C426.343 455.625 427.468 456.775 428.368 458.175C429.268 459.525 429.718 461.325 429.718 463.575C429.718 465.175 429.443 466.675 428.893 468.075C428.393 469.475 427.593 470.675 426.493 471.675C425.393 472.675 424.018 473.45 422.368 474C420.768 474.6 418.868 474.9 416.668 474.9C413.818 474.9 411.393 474.625 409.393 474.075C407.393 473.525 405.718 472.875 404.368 472.125L406.168 467.025C407.318 467.675 408.818 468.275 410.668 468.825C412.518 469.375 414.393 469.65 416.293 469.65C418.443 469.65 420.218 469.225 421.618 468.375C423.018 467.525 423.718 466 423.718 463.8ZM471.606 459.975C471.606 457.975 471.956 456.075 472.656 454.275C473.356 452.425 474.306 450.725 475.506 449.175C476.706 447.625 478.056 446.2 479.556 444.9C481.106 443.6 482.706 442.45 484.356 441.45C483.156 439.65 482.106 437.85 481.206 436.05C480.356 434.25 479.931 432.3 479.931 430.2C479.931 429 480.131 427.825 480.531 426.675C480.931 425.525 481.556 424.5 482.406 423.6C483.306 422.7 484.431 421.975 485.781 421.425C487.181 420.875 488.856 420.6 490.806 420.6C492.856 420.6 494.581 420.875 495.981 421.425C497.381 421.925 498.506 422.6 499.356 423.45C500.206 424.3 500.806 425.25 501.156 426.3C501.556 427.35 501.756 428.425 501.756 429.525C501.756 431.625 500.931 433.8 499.281 436.05C497.681 438.25 495.131 440.375 491.631 442.425C492.431 443.875 493.356 445.375 494.406 446.925C495.506 448.425 496.656 449.925 497.856 451.425C499.056 452.925 500.281 454.425 501.531 455.925C502.781 457.375 504.031 458.725 505.281 459.975C505.831 459.375 506.381 458.625 506.931 457.725C507.481 456.775 508.006 455.8 508.506 454.8C509.056 453.75 509.531 452.675 509.931 451.575C510.381 450.475 510.781 449.425 511.131 448.425L515.781 450.6C515.481 451.45 515.056 452.475 514.506 453.675C513.956 454.825 513.331 456.025 512.631 457.275C511.981 458.475 511.306 459.65 510.606 460.8C509.906 461.9 509.256 462.825 508.656 463.575C509.706 464.575 510.656 465.45 511.506 466.2C512.356 466.9 513.131 467.525 513.831 468.075C514.581 468.575 515.281 469.05 515.931 469.5C516.631 469.9 517.331 470.3 518.031 470.7L514.281 474.9C511.631 473.6 508.606 471.275 505.206 467.925C504.306 468.825 503.306 469.7 502.206 470.55C501.156 471.35 499.956 472.075 498.606 472.725C497.256 473.375 495.756 473.9 494.106 474.3C492.506 474.7 490.731 474.9 488.781 474.9C486.431 474.9 484.206 474.575 482.106 473.925C480.056 473.275 478.256 472.325 476.706 471.075C475.156 469.775 473.906 468.2 472.956 466.35C472.056 464.5 471.606 462.375 471.606 459.975ZM501.681 464.175C500.231 462.725 498.806 461.15 497.406 459.45C496.006 457.75 494.656 456.05 493.356 454.35C492.106 452.65 490.931 451.025 489.831 449.475C488.781 447.875 487.881 446.475 487.131 445.275C485.781 446.275 484.531 447.3 483.381 448.35C482.231 449.4 481.206 450.525 480.306 451.725C479.456 452.875 478.781 454.125 478.281 455.475C477.831 456.825 477.606 458.275 477.606 459.825C477.606 461.375 477.931 462.775 478.581 464.025C479.231 465.225 480.106 466.25 481.206 467.1C482.356 467.9 483.656 468.525 485.106 468.975C486.556 469.425 488.081 469.65 489.681 469.65C490.931 469.65 492.131 469.5 493.281 469.2C494.481 468.85 495.606 468.425 496.656 467.925C497.706 467.425 498.656 466.85 499.506 466.2C500.406 465.55 501.131 464.875 501.681 464.175ZM485.781 430.2C485.781 431.7 486.081 433.2 486.681 434.7C487.331 436.15 488.156 437.6 489.156 439.05C491.806 437.35 493.631 435.8 494.631 434.4C495.681 433 496.206 431.775 496.206 430.725C496.206 429.125 495.806 427.825 495.006 426.825C494.256 425.825 492.931 425.325 491.031 425.325C489.231 425.325 487.906 425.775 487.056 426.675C486.206 427.575 485.781 428.75 485.781 430.2ZM575.86 463.8C575.86 462.3 575.41 461.125 574.51 460.275C573.61 459.425 572.485 458.725 571.135 458.175C569.835 457.575 568.385 457.025 566.785 456.525C565.235 455.975 563.785 455.3 562.435 454.5C561.135 453.65 560.035 452.575 559.135 451.275C558.235 449.975 557.785 448.225 557.785 446.025C557.785 442.425 558.81 439.8 560.86 438.15C562.91 436.45 565.76 435.6 569.41 435.6C572.11 435.6 574.36 435.85 576.16 436.35C578.01 436.8 579.61 437.35 580.96 438L579.535 442.95C578.385 442.4 576.985 441.925 575.335 441.525C573.735 441.075 572.01 440.85 570.16 440.85C567.96 440.85 566.335 441.225 565.285 441.975C564.285 442.725 563.785 444.025 563.785 445.875C563.785 447.175 564.235 448.2 565.135 448.95C566.035 449.65 567.135 450.3 568.435 450.9C569.785 451.45 571.235 452 572.785 452.55C574.385 453.1 575.835 453.825 577.135 454.725C578.485 455.625 579.61 456.775 580.51 458.175C581.41 459.525 581.86 461.325 581.86 463.575C581.86 465.175 581.585 466.675 581.035 468.075C580.535 469.475 579.735 470.675 578.635 471.675C577.535 472.675 576.16 473.45 574.51 474C572.91 474.6 571.01 474.9 568.81 474.9C565.96 474.9 563.535 474.625 561.535 474.075C559.535 473.525 557.86 472.875 556.51 472.125L558.31 467.025C559.46 467.675 560.96 468.275 562.81 468.825C564.66 469.375 566.535 469.65 568.435 469.65C570.585 469.65 572.36 469.225 573.76 468.375C575.16 467.525 575.86 466 575.86 463.8ZM595.802 436.5H599.927L601.052 441H601.352C602.502 439.25 603.977 437.925 605.777 437.025C607.627 436.075 609.727 435.6 612.077 435.6C617.077 435.6 620.802 437.075 623.252 440.025C625.702 442.975 626.927 447.8 626.927 454.5C626.927 457.65 626.502 460.5 625.652 463.05C624.852 465.55 623.702 467.675 622.202 469.425C620.702 471.175 618.877 472.525 616.727 473.475C614.627 474.425 612.277 474.9 609.677 474.9C607.827 474.9 606.352 474.775 605.252 474.525C604.202 474.325 603.052 473.95 601.802 473.4V489H595.802V436.5ZM610.952 440.85C608.402 440.85 606.377 441.525 604.877 442.875C603.427 444.175 602.402 446.175 601.802 448.875V467.475C602.702 468.175 603.727 468.725 604.877 469.125C606.027 469.475 607.552 469.65 609.452 469.65C612.902 469.65 615.627 468.375 617.627 465.825C619.677 463.225 620.702 459.425 620.702 454.425C620.702 452.375 620.527 450.525 620.177 448.875C619.827 447.175 619.252 445.75 618.452 444.6C617.702 443.4 616.702 442.475 615.452 441.825C614.252 441.175 612.752 440.85 610.952 440.85ZM668.629 471C667.129 472.2 665.229 473.15 662.929 473.85C660.679 474.55 658.279 474.9 655.729 474.9C652.879 474.9 650.404 474.45 648.304 473.55C646.204 472.6 644.479 471.275 643.129 469.575C641.779 467.825 640.779 465.75 640.129 463.35C639.479 460.95 639.154 458.25 639.154 455.25C639.154 448.85 640.579 443.975 643.429 440.625C646.279 437.275 650.354 435.6 655.654 435.6C657.354 435.6 659.054 435.8 660.754 436.2C662.454 436.55 663.979 437.25 665.329 438.3C666.679 439.35 667.779 440.85 668.629 442.8C669.479 444.7 669.904 447.225 669.904 450.375C669.904 452.025 669.754 453.85 669.454 455.85H645.379C645.379 458.05 645.604 460 646.054 461.7C646.504 463.4 647.204 464.85 648.154 466.05C649.104 467.2 650.329 468.1 651.829 468.75C653.379 469.35 655.254 469.65 657.454 469.65C659.154 469.65 660.854 469.35 662.554 468.75C664.254 468.15 665.529 467.45 666.379 466.65L668.629 471ZM655.729 440.85C652.779 440.85 650.404 441.625 648.604 443.175C646.854 444.725 645.804 447.375 645.454 451.125H664.054C664.054 447.325 663.329 444.675 661.879 443.175C660.429 441.625 658.379 440.85 655.729 440.85ZM683.614 439.275C685.514 438.125 687.714 437.275 690.214 436.725C692.764 436.175 695.414 435.9 698.164 435.9C700.764 435.9 702.839 436.25 704.389 436.95C705.989 437.65 707.189 438.575 707.989 439.725C708.839 440.825 709.389 442.05 709.639 443.4C709.939 444.75 710.089 446.1 710.089 447.45C710.089 450.45 710.014 453.375 709.864 456.225C709.714 459.075 709.639 461.775 709.639 464.325C709.639 466.175 709.714 467.925 709.864 469.575C710.014 471.225 710.289 472.75 710.689 474.15H706.264L704.689 468.9H704.314C703.864 469.6 703.289 470.3 702.589 471C701.939 471.65 701.139 472.25 700.189 472.8C699.239 473.3 698.139 473.725 696.889 474.075C695.639 474.425 694.214 474.6 692.614 474.6C691.014 474.6 689.514 474.35 688.114 473.85C686.764 473.35 685.589 472.65 684.589 471.75C683.589 470.8 682.789 469.675 682.189 468.375C681.639 467.075 681.364 465.6 681.364 463.95C681.364 461.75 681.814 459.925 682.714 458.475C683.614 456.975 684.864 455.8 686.464 454.95C688.114 454.05 690.064 453.425 692.314 453.075C694.614 452.675 697.139 452.475 699.889 452.475C700.589 452.475 701.264 452.475 701.914 452.475C702.614 452.475 703.314 452.525 704.014 452.625C704.164 451.125 704.239 449.775 704.239 448.575C704.239 445.825 703.689 443.9 702.589 442.8C701.489 441.7 699.489 441.15 696.589 441.15C695.739 441.15 694.814 441.225 693.814 441.375C692.864 441.475 691.864 441.65 690.814 441.9C689.814 442.1 688.839 442.375 687.889 442.725C686.989 443.025 686.189 443.375 685.489 443.775L683.614 439.275ZM694.264 469.35C695.664 469.35 696.914 469.175 698.014 468.825C699.114 468.425 700.064 467.95 700.864 467.4C701.664 466.8 702.314 466.15 702.814 465.45C703.364 464.75 703.764 464.075 704.014 463.425V457.2C703.314 457.15 702.589 457.125 701.839 457.125C701.139 457.075 700.439 457.05 699.739 457.05C698.189 457.05 696.664 457.15 695.164 457.35C693.714 457.5 692.414 457.825 691.264 458.325C690.164 458.775 689.264 459.425 688.564 460.275C687.914 461.075 687.589 462.1 687.589 463.35C687.589 465.1 688.214 466.55 689.464 467.7C690.714 468.8 692.314 469.35 694.264 469.35ZM735.746 457.125H732.296V474H726.296V421.5H732.296V453.45L735.371 452.4L746.996 436.5H753.971L742.496 451.575L739.421 454.05L743.171 457.05L755.696 474H748.271L735.746 457.125ZM793.556 471C792.056 472.2 790.156 473.15 787.856 473.85C785.606 474.55 783.206 474.9 780.656 474.9C777.806 474.9 775.331 474.45 773.231 473.55C771.131 472.6 769.406 471.275 768.056 469.575C766.706 467.825 765.706 465.75 765.056 463.35C764.406 460.95 764.081 458.25 764.081 455.25C764.081 448.85 765.506 443.975 768.356 440.625C771.206 437.275 775.281 435.6 780.581 435.6C782.281 435.6 783.981 435.8 785.681 436.2C787.381 436.55 788.906 437.25 790.256 438.3C791.606 439.35 792.706 440.85 793.556 442.8C794.406 444.7 794.831 447.225 794.831 450.375C794.831 452.025 794.681 453.85 794.381 455.85H770.306C770.306 458.05 770.531 460 770.981 461.7C771.431 463.4 772.131 464.85 773.081 466.05C774.031 467.2 775.256 468.1 776.756 468.75C778.306 469.35 780.181 469.65 782.381 469.65C784.081 469.65 785.781 469.35 787.481 468.75C789.181 468.15 790.456 467.45 791.306 466.65L793.556 471ZM780.656 440.85C777.706 440.85 775.331 441.625 773.531 443.175C771.781 444.725 770.731 447.375 770.381 451.125H788.981C788.981 447.325 788.256 444.675 786.806 443.175C785.356 441.625 783.306 440.85 780.656 440.85ZM826.842 442.275C825.342 441.775 823.917 441.525 822.567 441.525C820.417 441.525 818.717 442.125 817.467 443.325C816.217 444.475 815.442 445.95 815.142 447.75V474H809.142V436.5H813.342L814.467 441.075H814.767C815.717 439.375 816.842 438.075 818.142 437.175C819.492 436.225 821.192 435.75 823.242 435.75C824.692 435.75 826.317 436 828.117 436.5L826.842 442.275ZM856.005 463.8C856.005 462.3 855.555 461.125 854.655 460.275C853.755 459.425 852.63 458.725 851.28 458.175C849.98 457.575 848.53 457.025 846.93 456.525C845.38 455.975 843.93 455.3 842.58 454.5C841.28 453.65 840.18 452.575 839.28 451.275C838.38 449.975 837.93 448.225 837.93 446.025C837.93 442.425 838.955 439.8 841.005 438.15C843.055 436.45 845.905 435.6 849.555 435.6C852.255 435.6 854.505 435.85 856.305 436.35C858.155 436.8 859.755 437.35 861.105 438L859.68 442.95C858.53 442.4 857.13 441.925 855.48 441.525C853.88 441.075 852.155 440.85 850.305 440.85C848.105 440.85 846.48 441.225 845.43 441.975C844.43 442.725 843.93 444.025 843.93 445.875C843.93 447.175 844.38 448.2 845.28 448.95C846.18 449.65 847.28 450.3 848.58 450.9C849.93 451.45 851.38 452 852.93 452.55C854.53 453.1 855.98 453.825 857.28 454.725C858.63 455.625 859.755 456.775 860.655 458.175C861.555 459.525 862.005 461.325 862.005 463.575C862.005 465.175 861.73 466.675 861.18 468.075C860.68 469.475 859.88 470.675 858.78 471.675C857.68 472.675 856.305 473.45 854.655 474C853.055 474.6 851.155 474.9 848.955 474.9C846.105 474.9 843.68 474.625 841.68 474.075C839.68 473.525 838.005 472.875 836.655 472.125L838.455 467.025C839.605 467.675 841.105 468.275 842.955 468.825C844.805 469.375 846.68 469.65 848.58 469.65C850.73 469.65 852.505 469.225 853.905 468.375C855.305 467.525 856.005 466 856.005 463.8Z" fill="white" fill-opacity="0.88"/>
<path d="M377.327 0C369.769 0 363.345 6.42421 363.345 13.9821V141.711C363.345 149.268 369.769 155.693 377.327 155.693C384.885 155.693 391.309 149.268 391.309 141.711V13.9821C391.309 6.42421 384.885 0 377.327 0Z" fill="white"/>
<path d="M432.5 23.4302C424.942 23.4302 418.518 29.8544 418.518 37.4123V118.282C418.518 125.84 424.942 132.264 432.5 132.264C440.058 132.264 446.482 125.84 446.482 118.282V37.4123C446.482 29.4765 440.058 23.4302 432.5 23.4302Z" fill="white"/>
<path d="M322.155 23.4302C314.597 23.4302 308.173 29.8544 308.173 37.4123V118.282C308.173 125.84 314.597 132.264 322.155 132.264C329.713 132.264 336.137 125.84 336.137 118.282V37.4123C336.137 29.4765 329.713 23.4302 322.155 23.4302Z" fill="white"/>
<path d="M487.672 46.8584C480.114 46.8584 473.69 53.2826 473.69 60.8405V95.2289C473.69 102.787 480.114 109.211 487.672 109.211C495.23 109.211 501.654 102.787 501.654 95.2289V60.8405C501.654 52.9047 495.23 46.8584 487.672 46.8584Z" fill="white"/>
<path d="M542.845 23.4302C535.287 23.4302 528.863 29.8544 528.863 37.4123V118.282C528.863 125.84 535.287 132.264 542.845 132.264C550.403 132.264 556.827 125.84 556.827 118.282V37.4123C556.827 29.4765 550.403 23.4302 542.845 23.4302Z" fill="white"/>
<path d="M598.018 46.8584C590.46 46.8584 584.036 53.2826 584.036 60.8405V95.2289C584.036 102.787 590.46 109.211 598.018 109.211C605.576 109.211 612 102.787 612 95.2289V60.8405C612 52.9047 605.576 46.8584 598.018 46.8584Z" fill="white"/>
<path d="M266.982 46.8584C259.424 46.8584 253 53.2826 253 60.8405V95.2289C253 102.787 259.424 109.211 266.982 109.211C274.54 109.211 280.964 102.787 280.964 95.2289V60.8405C280.964 52.9047 274.918 46.8584 266.982 46.8584Z" fill="white"/>
</svg>
