<svg width="28" height="28" viewBox="0 0 28 28" fill="none" xmlns="http://www.w3.org/2000/svg">
<rect width="28" height="28" fill="#EB5111" style="fill:#EB5111;fill:color(display-p3 0.9216 0.3176 0.0667);fill-opacity:1;"/>
<path d="M21.9563 10.7041C21.9188 9.85391 21.7813 9.26945 21.5844 8.763C21.3812 8.22542 21.0687 7.74412 20.6592 7.34402C20.2591 6.93769 19.7746 6.62195 19.2432 6.42196C18.7339 6.22502 18.1524 6.08754 17.3023 6.05006C16.4458 6.0094 16.1739 6 14.0016 6C11.8293 6 11.5574 6.0094 10.7041 6.04688C9.85391 6.08437 9.26945 6.22197 8.76312 6.41878C8.22542 6.62195 7.74412 6.93451 7.34402 7.34402C6.93769 7.74412 6.62207 8.22859 6.42196 8.75995C6.22502 9.26945 6.08754 9.85074 6.05006 10.7009C6.0094 11.5574 6 11.8293 6 14.0016C6 16.1739 6.0094 16.4458 6.04688 17.2991C6.08437 18.1493 6.22197 18.7337 6.41891 19.2402C6.62207 19.7778 6.93769 20.2591 7.34402 20.6592C7.74412 21.0655 8.22859 21.3812 8.75995 21.5812C9.26945 21.7782 9.85074 21.9156 10.701 21.9531C11.5542 21.9907 11.8262 22 13.9985 22C16.1708 22 16.4427 21.9907 17.2961 21.9531C18.1462 21.9156 18.7307 21.7782 19.237 21.5812C20.3123 21.1655 21.1624 20.3153 21.5782 19.2402C21.775 18.7307 21.9126 18.1493 21.9501 17.2991C21.9875 16.4458 21.9969 16.1739 21.9969 14.0016C21.9969 11.8293 21.9938 11.5574 21.9563 10.7041ZM20.5155 17.2366C20.481 18.018 20.3498 18.44 20.2404 18.7213C19.9715 19.4183 19.4183 19.9715 18.7213 20.2404C18.44 20.3498 18.015 20.481 17.2366 20.5153C16.3927 20.5529 16.1396 20.5622 14.0048 20.5622C11.8699 20.5622 11.6137 20.5529 10.7728 20.5153C9.99139 20.481 9.56943 20.3498 9.28813 20.2404C8.94126 20.1122 8.62552 19.909 8.36924 19.6433C8.10357 19.3839 7.9004 19.0713 7.7722 18.7244C7.66281 18.4431 7.53155 18.018 7.49725 17.2398C7.45964 16.3959 7.45036 16.1426 7.45036 14.0078C7.45036 11.873 7.45964 11.6167 7.49725 10.776C7.53155 9.99457 7.66281 9.57261 7.7722 9.2913C7.9004 8.94431 8.10357 8.6287 8.37242 8.3723C8.63175 8.10662 8.94431 7.90345 9.2913 7.77538C9.57261 7.66598 9.99774 7.53473 10.776 7.5003C11.6199 7.46281 11.8731 7.45341 14.0078 7.45341C16.1458 7.45341 16.3989 7.46281 17.2398 7.5003C18.0212 7.53473 18.4431 7.66598 18.7244 7.77538C19.0713 7.90345 19.3871 8.10662 19.6433 8.3723C19.909 8.63175 20.1122 8.94431 20.2404 9.2913C20.3498 9.57261 20.481 9.99762 20.5155 10.776C20.5529 11.6199 20.5623 11.873 20.5623 14.0078C20.5623 16.1426 20.5529 16.3927 20.5155 17.2366Z" fill="white" style="fill:white;fill-opacity:1;"/>
<path d="M14.0015 9.8914C11.7324 9.8914 9.89136 11.7323 9.89136 14.0016C9.89136 16.2708 11.7324 18.1118 14.0015 18.1118C16.2708 18.1118 18.1117 16.2708 18.1117 14.0016C18.1117 11.7323 16.2708 9.8914 14.0015 9.8914ZM14.0015 16.6678C12.5295 16.6678 11.3354 15.4738 11.3354 14.0016C11.3354 12.5294 12.5295 11.3354 14.0015 11.3354C15.4738 11.3354 16.6677 12.5294 16.6677 14.0016C16.6677 15.4738 15.4738 16.6678 14.0015 16.6678Z" fill="white" style="fill:white;fill-opacity:1;"/>
<path d="M19.2339 9.7289C19.2339 10.2588 18.8043 10.6884 18.2742 10.6884C17.7443 10.6884 17.3147 10.2588 17.3147 9.7289C17.3147 9.19889 17.7443 8.76936 18.2742 8.76936C18.8043 8.76936 19.2339 9.19889 19.2339 9.7289Z" fill="white" style="fill:white;fill-opacity:1;"/>
</svg>
