<svg width="28" height="28" viewBox="0 0 28 28" fill="none" xmlns="http://www.w3.org/2000/svg">
<rect width="28" height="28" fill="#EB5111" style="fill:#EB5111;fill:color(display-p3 0.9216 0.3176 0.0667);fill-opacity:1;"/>
<path d="M22 8.65738C21.405 8.93846 20.771 9.12477 20.11 9.21523C20.79 8.778 21.309 8.09092 21.553 7.26277C20.919 7.66985 20.219 7.95738 19.473 8.11785C18.871 7.42754 18.013 7 17.077 7C15.261 7 13.799 8.58738 13.799 10.5334C13.799 10.8134 13.821 11.0826 13.875 11.3389C11.148 11.1957 8.735 9.78815 7.114 7.644C6.831 8.17277 6.665 8.778 6.665 9.42954C6.665 10.6529 7.25 11.7374 8.122 12.3652C7.595 12.3545 7.078 12.1897 6.64 11.9302C6.64 11.9409 6.64 11.9549 6.64 11.9689C6.64 13.6855 7.777 15.1114 9.268 15.4398C9.001 15.5185 8.71 15.5562 8.408 15.5562C8.198 15.5562 7.986 15.5432 7.787 15.4958C8.212 16.8948 9.418 17.9232 10.852 17.9566C9.736 18.8968 8.319 19.4632 6.785 19.4632C6.516 19.4632 6.258 19.4503 6 19.4148C7.453 20.4238 9.175 21 11.032 21C17.068 21 20.368 15.6154 20.368 10.948C20.368 10.7918 20.363 10.6411 20.356 10.4914C21.007 9.99385 21.554 9.37246 22 8.65738Z" fill="white" style="fill:white;fill-opacity:1;"/>
</svg>
