<svg width="28" height="28" viewBox="0 0 28 28" fill="none" xmlns="http://www.w3.org/2000/svg">
<rect width="28" height="28" fill="#EB5111" style="fill:#EB5111;fill:color(display-p3 0.9216 0.3176 0.0667);fill-opacity:1;"/>
<path d="M21.3764 9.33651C20.7988 8.64996 19.7325 8.3699 17.6961 8.3699H10.3038C8.22075 8.3699 7.13636 8.66802 6.56098 9.39896C6 10.1116 6 11.1617 6 12.615V15.385C6 18.2006 6.6656 19.6301 10.3038 19.6301H17.6961C19.4621 19.6301 20.4407 19.383 21.0738 18.7771C21.723 18.1558 22 17.1413 22 15.385V12.615C22 11.0824 21.9566 10.0261 21.3764 9.33651ZM16.2721 14.3824L12.9153 16.1368C12.8402 16.176 12.7581 16.1955 12.6762 16.1955C12.5834 16.1955 12.4908 16.1705 12.4088 16.1209C12.2543 16.0273 12.1601 15.8599 12.1601 15.6794V12.1819C12.1601 12.0016 12.2541 11.8344 12.4082 11.7408C12.5624 11.6472 12.7541 11.6408 12.9141 11.7239L16.2709 13.4669C16.4417 13.5556 16.5489 13.7319 16.5492 13.9243C16.5494 14.1168 16.4426 14.2934 16.2721 14.3824Z" fill="white" style="fill:white;fill-opacity:1;"/>
</svg>
